<svg id="Layer_1" data-name="Layer 1" xmlns="http://www.w3.org/2000/svg" viewBox="0 0 96 98.92"><title>codepen</title><path d="M97.84,36.15a6.26,6.26,0,0,0-2.25-4.32C81.52,21.68,67.31,11.71,53.17,1.65,50.89,0,48.92.26,46.7,1.84,33.56,11.17,20.43,20.5,7.16,29.63c-3.8,2.6-5.63,5.57-5,10.26.41,3.23.08,6.55.08,9.83,0,4.41-.27,8.85.12,13.22A8,8,0,0,0,5,68.16q18.46,13.47,37.25,26.5c9.26,6.43,6.43,6.37,15.59,0Q76.77,81.54,95.42,68a6.73,6.73,0,0,0,2.42-4.61Q98.17,49.78,97.84,36.15ZM55.29,12.09,86.59,34.17c-4.2,3-7.81,5.69-11.63,8.11a4,4,0,0,1-3.56-.21c-4.84-3.18-9.57-6.52-14.19-10a5,5,0,0,1-1.85-3.31C55.18,23.5,55.29,18.22,55.29,12.09Zm-10.46,0c0,6.15.09,11.31-.08,16.45A5,5,0,0,1,43.1,31.9c-4.72,3.55-9.55,6.95-14.46,10.23a3.7,3.7,0,0,1-3.26.28c-3.89-2.48-7.63-5.25-11.84-8.21ZM8.67,43.51l9.21,6.27L8.67,56.34ZM44.82,87.59l-31.24-22c4.21-3,8.12-5.89,12.17-8.54.61-.4,2.14,0,2.91.54,4.8,3.26,9.54,6.56,14.18,10a5,5,0,0,1,1.89,3.28C44.92,76.15,44.82,81.44,44.82,87.59Zm3.56-28.88C44.27,56,40.32,53.12,35.7,49.85c4.69-3.32,8.85-6.34,13.1-9.22a2.56,2.56,0,0,1,2.34-.09c4.36,2.94,8.62,6,13.27,9.32-4.53,3.2-8.57,6.18-12.78,8.92A3.61,3.61,0,0,1,48.38,58.71ZM55.29,87.6c0-6.21-.09-11.69.09-17.17a4.65,4.65,0,0,1,1.94-2.9c4.66-3.44,9.38-6.79,14.21-10a3.62,3.62,0,0,1,3.22-.29c3.89,2.51,7.6,5.3,11.8,8.31C76,73,65.93,80.09,55.29,87.6ZM91.4,56.2l-9.1-6.33,9.1-6.47Z" transform="translate(-2 -0.54)"/></svg>