<svg xmlns="http://www.w3.org/2000/svg" viewBox="0 0 1008.76 827.96"><defs><style>.cls-1{fill:#3b47bc;}.cls-2{fill:#3aafa9;}.cls-3{fill:#d36a54;}.cls-4{fill:#fff;}.cls-5{fill:#1c7f78;}.cls-6{fill:#ededf2;}.cls-7{fill:#c45445;}.cls-8{fill:#eeeaea;}.cls-9{fill:#cc5a47;}.cls-10{fill:#0b4943;}.cls-11{fill:#c6534a;}.cls-12{fill:#a22e47;}.cls-13{fill:#47384d;}.cls-14{fill:#3a2e45;}.cls-15{fill:#504059;}.cls-16{fill:#db7463;}.cls-17{fill:#e8a788;}.cls-18{fill:#ecedec;}.cls-19{fill:#a34147;}.cls-20{fill:#2d2e44;}.cls-21{fill:#f75f51;}.cls-22{fill:#f59a53;}</style></defs><title>character</title><g id="Layer_5" data-name="Layer 5"><path class="cls-1" d="M0,0" transform="translate(-150.24 -98.53)"/><path class="cls-1" d="M1280,1024" transform="translate(-150.24 -98.53)"/></g><g id="Layer_4" data-name="Layer 4"><path class="cls-2" d="M1107.32,702.14A467.19,467.19,0,0,1,1058,911.69q-3.7,7.4-7.66,14.66H225.87q-4-7.26-7.66-14.66a467.19,467.19,0,0,1-49.28-209.55c0-259.13,210.06-469.2,469.2-469.2S1107.32,443,1107.32,702.14Z" transform="translate(-150.24 -98.53)"/><path class="cls-3" d="M501.28,537.74c1.22-3.67,11-116.08,11-116.08l68.42,2.44,23.22,7.33-9.77,106.3Z" transform="translate(-150.24 -98.53)"/><path class="cls-4" d="M740.76,815.32c-13.12,38.5-24.6,70.56-34.6,97.23q-2.69,7.16-5.23,13.81H301.27A219.94,219.94,0,0,1,282,912.54c-10.8-8.73-19.53-17.82-25.54-27.25-8.16-12.77-11.36-26.14-8.15-40.06l93.14-283.67S359,529.08,482.67,505c2-.39,3.67-1.93,5.55-2.91l10.62-5.52s41.13,26.11,81.33,14.2a70.9,70.9,0,0,0,20.09-9.6l7.56,4.08,5.49,3,78.59,42.42s31.1,12.59,52.5,52.7a163.87,163.87,0,0,1,16.29,47.75,217.81,217.81,0,0,1,3.46,35.32C764.81,720.78,758.53,763.18,740.76,815.32Z" transform="translate(-150.24 -98.53)"/><path class="cls-5" d="M419,674c-13.11-56.12-77.2-112.18-77.46-112.45l6.25-6.25c1.12,1.14,59,61.07,72.47,118.69Z" transform="translate(-150.24 -98.53)"/><path class="cls-6" d="M523.26,926.35H398.73l.24-5,.39-7.86,5-101.35L420.21,674c21,33.78,32,69.56,49.11,109.24,9.93,23.11,19,45.83,26.83,66.59,9.47,25,17.24,47.18,22.81,63.65C520.58,918.28,522,922.6,523.26,926.35Z" transform="translate(-150.24 -98.53)"/><path class="cls-6" d="M371.76,685.3c0,28-27.9,50.63-62.32,50.63a75.62,75.62,0,0,1-15-1.47l39.82-95.58C356.35,646.66,371.76,664.52,371.76,685.3Z" transform="translate(-150.24 -98.53)"/><path class="cls-6" d="M764.14,686.45c-28.86,7-74.84,11.51-126.62,11.51-87.39,0-158.23-12.88-158.23-28.77s70.84-28.77,158.23-28.77c49.77,0,94.16,4.18,123.16,10.7A217.81,217.81,0,0,1,764.14,686.45Z" transform="translate(-150.24 -98.53)"/><path class="cls-6" d="M744.39,603.38,580.16,510.8a70.9,70.9,0,0,0,20.09-9.6l91.64,49.48S723,563.26,744.39,603.38Z" transform="translate(-150.24 -98.53)"/><ellipse class="cls-6" cx="542.87" cy="708.73" rx="197.94" ry="83.99"/><path class="cls-5" d="M613.3,508.25c-20.16,19.17-41.36,28.87-63.12,28.87-1.22,0-2.44,0-3.67-.09-30.18-1.51-53.19-21-63.84-32q2.73-1.45,5.55-2.91C498.7,512.56,520,530,546.87,531.29c20.82,1,41.29-7.72,60.95-26Z" transform="translate(-150.24 -98.53)"/><path class="cls-7" d="M936.26,512c2.44-1.57,30.55-15.69,30.55-15.69s8.55,22-22,40.78-25.66-17.26-25.66-17.26Z" transform="translate(-150.24 -98.53)"/><rect class="cls-8" x="737.06" y="435.25" width="208.39" height="271.25" rx="19.38" ry="19.38" transform="translate(-75.61 -195.42) rotate(6.9)"/><path class="cls-3" d="M963.73,493.16s10.77-1.73,3.13,19.37c0,0-27.74,15.69-41.8,11.9s2.42-14.79,2.42-14.79Z" transform="translate(-150.24 -98.53)"/><path class="cls-3" d="M960.8,537.84c-.46,1-1,2.15-1.7,3.34,0,0-27.54,7.18-41,1.06a4.78,4.78,0,0,1-.57-.26c-13.23-6.6,3.77-12.47,3.77-12.47L958,523.37S967.1,524.21,960.8,537.84Z" transform="translate(-150.24 -98.53)"/><circle class="cls-4" cx="698.04" cy="466.76" r="26.88"/><path class="cls-9" d="M732.21,670.37C713.88,696,616.13,724.13,616.13,724.13s-46.86,29.42-120,115q-6.47,7.57-13.2,15.71c-21.65,26.26-44.19,44.4-66.15,56.82a199.35,199.35,0,0,1-17.83,9q-7.33,3.23-14.5,5.71H264a40.89,40.89,0,0,1-8.82-14.66,77.67,77.67,0,0,1-4.36-23.83l5.71-5.11,29.73-26.66,118.15-59.9,64.93-32.92,82.06-41.59,61.09-39.1s25.66,4.89,26.88,6.11,26.88,0,26.88,0L713.88,674Z" transform="translate(-150.24 -98.53)"/><path class="cls-3" d="M250.8,887.86s7.33-80.64,110-108.75,210.16-88,210.16-88l66-56.21,90.42-33s9.77-4.89,15.88,0-7.33,11-7.33,11l-55,23.22,68.42-24.49s9.77-2.44,12.22,1.22c1.88,2.82.14,6.37-.76,7.85-.27.44-69.45,33.29-69.45,33.29s69.33-27.59,69.89-27.55c3.06.17,12.44,1.29,5.2,8.52-8.55,8.55-73.31,37.82-73.31,37.82L753,649.6s4.89-1.22,4.89,3.67-6.11,7.33-6.11,7.33-102.64,45.21-128.3,47.65S484.17,813.33,484.17,813.33s-135.63,110-178.39,103.86S254.46,907.41,250.8,887.86Z" transform="translate(-150.24 -98.53)"/><path class="cls-10" d="M358.76,801.55H529.43a0,0,0,0,1,0,0v15.88a0,0,0,0,1,0,0H352.26a0,0,0,0,1,0,0V808A6.5,6.5,0,0,1,358.76,801.55Z"/><path class="cls-8" d="M1151.92,926.35c-.55,0-1.1,0-1.66,0-12.85.32-25.77,0-38.64,0H157.32c-9.44,0-9.43-14.66,0-14.66.55,0,1.1,0,1.66,0,12.85-.32,25.77,0,38.64,0h954.3C1161.37,911.69,1161.35,926.35,1151.92,926.35Z" transform="translate(-150.24 -98.53)"/><path class="cls-5" d="M1061.34,653.88H730.89A26.34,26.34,0,0,0,706,671.71l-81.89,240h386.11l76.08-223A26.34,26.34,0,0,0,1061.34,653.88Z" transform="translate(-150.24 -98.53)"/><ellipse class="cls-4" cx="874.92" cy="782.33" rx="26.88" ry="20.04" transform="translate(-315.22 1227.97) rotate(-69.43)"/><path class="cls-11" d="M527.11,289.62l-15.83,12.08-18.64,14.23c-5.37,4.46-10.77,6.92-15.68,7.22-10.06.63-18.11-7.75-19.82-26.36-2.54-27.69,8.79-32.76,15.32-34.86,3.76-1.21,11.75,4.83,17.85,10.16,4.49,3.93,8,7.48,8,7.48l15.6,5.43Z" transform="translate(-150.24 -98.53)"/><path class="cls-12" d="M513.86,285l-2.58,16.69-18.64,14.23c-5.37,4.46-10.77,6.92-15.68,7.22l12.65-29.71-.69-7.49c0,.67-.29,6.72-8.31,5.48,0,0,9.7-6.56,5.32-10.34s-19.8-12.37-21.32,13.45c0,0-7.24-41.45,24.11-15.5l1.57-6.94c4.49,3.93,8,7.48,8,7.48Z" transform="translate(-150.24 -98.53)"/><path class="cls-11" d="M686.41,321.43c-2.44,5.4-7.86,7.32-13.25,7.75a45.59,45.59,0,0,1-14.31-1.5l.66-39.92A115.67,115.67,0,0,1,670,278c3.14-2.51,6.38-4.62,8.76-5,6.5-1.17,8.53,1.12,12.22,10.64S692.11,308.83,686.41,321.43Z" transform="translate(-150.24 -98.53)"/><path class="cls-12" d="M670.28,297.79l2.88,31.39a45.59,45.59,0,0,1-14.31-1.5l.66-39.92A115.67,115.67,0,0,1,670,278l-1.54,13.18s19.59-25.41,20.29,7.91C688.79,299.07,681.32,274.39,670.28,297.79Z" transform="translate(-150.24 -98.53)"/><path class="cls-13" d="M687.33,407.94a153,153,0,0,1-27.38,52c-22.35,15.44-42.1,24.64-59.53,29.1C499,515,476,380.39,476,380.39c-3.08-36.93,17.7-88.06,17.7-88.06C494.5,210.2,446.82,223,446.82,223c20.7-73.1,62.2-69.74,75.33-66.64a30.66,30.66,0,0,1,4.08,1.22c7.67-18.28-29.82-28.27-29.82-28.27.94-.42,68.67-14.34,91.21-17.49C692.74,97.09,691,180.56,683.15,214.59a58,58,0,0,1-3.6,11.29,12.44,12.44,0,0,1-1.14,2,17.54,17.54,0,0,0-1.24,2c-9.47,17.18-14.39,77.07-14.39,77.07q3.17,3.38,5.93,6.79l1,1.31q1.16,1.47,2.25,2.93C695.43,349.56,694.84,382,687.33,407.94Z" transform="translate(-150.24 -98.53)"/><path class="cls-14" d="M648.35,356.62a22.05,22.05,0,0,1-7.67,2.31c-18,2-32.56,1.19-38.3-23.17s4-54.73,4-54.73,1.84-5.78,3.68-8.27h0a2.79,2.79,0,0,1,1.24-1.09c2.13-.61,3.9,1.89,6.87,6.7,0,0,25.3,37.68,38,46.25C666.9,331.86,661.26,350,648.35,356.62Z" transform="translate(-150.24 -98.53)"/><path class="cls-14" d="M600.41,489.06C499,515,476,380.39,476,380.39c-3.08-36.93,17.7-88.06,17.7-88.06.19-18.78-2.15-32.6-5.89-42.74q-.76-2.09-1.61-4C472.92,216,446.82,223,446.82,223c20.7-73.1,62.2-69.74,75.33-66.64,7.54,11.61,12.38,29,13,54C535.14,210.37,526.43,412.58,600.41,489.06Z" transform="translate(-150.24 -98.53)"/><path class="cls-15" d="M687.33,407.94l-34.26-107.1,9.71,6.06C695.47,341.87,695.72,379,687.33,407.94Z" transform="translate(-150.24 -98.53)"/><path class="cls-16" d="M665.48,330.53l0,.06a13.19,13.19,0,0,1-3.69,3.89c-7.56,5.71-25.29,12-55,13.18a332.25,332.25,0,0,1-55.66-2.91,81.8,81.8,0,0,1-8.1-1.45c-64.26-15-39.19-99.29-39.19-99.29s11.81-4.54,31-8.37c25.59-5.1,64.31-9,105.66.84q7.39,1.75,14.87,4.11S670.34,321.24,665.48,330.53Z" transform="translate(-150.24 -98.53)"/><path class="cls-9" d="M543,343.31c-64.26-15-39.19-99.29-39.19-99.29s11.81-4.54,31-8.37C535,260.52,536.52,300.84,543,343.31Z" transform="translate(-150.24 -98.53)"/><path class="cls-17" d="M665.48,330.53l-25-94q7.39,1.75,14.87,4.11S670.34,321.24,665.48,330.53Z" transform="translate(-150.24 -98.53)"/><path class="cls-18" d="M546.37,322.39c-17-3.47-31.12-12.78-34.3-17.17-.39-.54-.82-1.11-1.27-1.71-6.15-8.16-17.59-23.35-11.7-63.77l0-.31.13-.29c.29-.63,7.7-15.44,51.14-19.29,42.55-3.77,51.07-.23,55.09,12.3a87.68,87.68,0,0,1,4.71,29.42c-.4,16.42-6.09,31.85-16.92,45.85-8.55,11.05-20.36,16.54-35.1,16.3A64.21,64.21,0,0,1,546.37,322.39Zm-43.08-81.63c-5.5,38.35,5.19,52.53,10.94,60.17.47.63.92,1.22,1.32,1.77,3,4.17,22.41,16.41,42.72,16.73,13.31.21,24-4.72,31.64-14.64,24.33-31.43,14.69-61.46,11.52-71.33-2.75-8.58-6.46-13.24-50.63-9.33C513.22,227.45,504.37,239.07,503.29,240.75Z" transform="translate(-150.24 -98.53)"/><path class="cls-18" d="M669.75,315l-1-1.31a27.53,27.53,0,0,1-3.72-.38l-1-.19c-21.93-4.49-38.62-32.92-38.79-33.21l-.05-.09c-.14-.22-13.6-21.93,3.19-47.87,2.19-1.23,16-7.85,48.84-2.14a17.54,17.54,0,0,1,1.24-2,12.44,12.44,0,0,0,1.14-2c-39.17-7.15-53.37,2.32-54,2.74l-.34.23-.23.35c-9.75,14.82-10.21,28.38-8.87,37.15a44,44,0,0,0,5.36,15.75c1,1.69,18,30.4,41.61,35.23l1.15.21a32.43,32.43,0,0,0,7.74.39Q670.91,316.47,669.75,315Z" transform="translate(-150.24 -98.53)"/><path class="cls-14" d="M694,308.05c-7,6-14.39,9.34-22,9.88q-1.09-1.46-2.25-2.93l-1-1.31c7.75.28,15.3-2.7,22.5-8.89,24.94-21.45,19.86-46.56,11.2-63.86-4.3-8.59-19-10-19.14-10l-.24,0q-3-.62-5.85-1.1a17.54,17.54,0,0,1,1.24-2,12.44,12.44,0,0,0,1.14-2c1.37.25,2.78.52,4.21.82,1.71.17,17.3,2,22.48,12.32C719.45,265.4,715.1,289.91,694,308.05Z" transform="translate(-150.24 -98.53)"/><path class="cls-19" d="M599.57,293.79a65.38,65.38,0,0,0-19-2.37c-2.79,0-5.53.23-8.19.54a106.24,106.24,0,0,0-32.66,9.46" transform="translate(-150.24 -98.53)"/><path class="cls-19" d="M654.54,295.2a63.91,63.91,0,0,0-9.46-3.07,45.63,45.63,0,0,0-9.81-1.29c-8.06-.14-12.23,2.3-12.23,2.3" transform="translate(-150.24 -98.53)"/><path class="cls-20" d="M580.53,291.43c-2.79,0-5.53.23-8.19.54a12.08,12.08,0,0,1-2.06-7.62c.21-5.27,3.12-9.43,6.51-9.3s6,4.52,5.75,9.79A12.72,12.72,0,0,1,580.53,291.43Z" transform="translate(-150.24 -98.53)"/><path class="cls-20" d="M645.08,292.13a45.63,45.63,0,0,0-9.81-1.29,13.54,13.54,0,0,1-.79-5.24c.21-5.27,3.12-9.43,6.51-9.3s6,4.52,5.75,9.79A13.08,13.08,0,0,1,645.08,292.13Z" transform="translate(-150.24 -98.53)"/><path class="cls-20" d="M545.24,266.58l5.39,4.23s11.51-19.55,31.72-20.42l.26-4.33S557.35,247.15,545.24,266.58Z" transform="translate(-150.24 -98.53)"/><path class="cls-20" d="M655.53,259.73l-2.31,5.16S644.35,259.32,629,258l.14-3.73S636.68,254,655.53,259.73Z" transform="translate(-150.24 -98.53)"/><path class="cls-9" d="M661.76,334.49c-7.56,5.71-25.29,12-55,13.18a44.51,44.51,0,0,1-4.43-11.9c-5.74-24.36,4-54.73,4-54.73s1.84-5.77,3.68-8.27h0a2.82,2.82,0,0,1,1.24-1.09c2.13-.61,3.9,1.89,6.87,6.7,0,0,25.3,37.68,38,46.24A12.74,12.74,0,0,1,661.76,334.49Z" transform="translate(-150.24 -98.53)"/><path class="cls-21" d="M657.6,343.76a22.05,22.05,0,0,1-7.38,3.12c-17.69,3.89-32.25,4.67-40.56-18.94s-1.92-54.84-1.92-54.84,1.22-5.94,2.77-8.62h0a2.79,2.79,0,0,1,1.12-1.22c2-.83,4.08,1.46,7.55,5.93,0,0,29.19,34.76,42.74,41.92C673.4,317.16,669.74,335.83,657.6,343.76Z" transform="translate(-150.24 -98.53)"/><path class="cls-22" d="M657.6,343.76c-17.46-2.33-35.45-11.86-42.44-31.71-5.52-15.68-5.65-34.17-4.65-47.56h0a2.79,2.79,0,0,1,1.12-1.22c2-.83,4.08,1.46,7.55,5.93,0,0,29.19,34.76,42.74,41.92C673.4,317.16,669.74,335.83,657.6,343.76Z" transform="translate(-150.24 -98.53)"/><path class="cls-14" d="M451.92,285l-3.53,2.44c-3.91-5.65-5.25-11.15-4-16.35,2-8.18,9.7-12.42,10-12.59l.21-.1,31.52-12.82q.85,1.89,1.61,4l-31.39,12.77c-.75.43-6.41,3.89-7.82,9.8C447.61,276.1,448.74,280.43,451.92,285Z" transform="translate(-150.24 -98.53)"/><path class="cls-18" d="M501.64,243.94l-13.87,5.64q-.76-2.09-1.61-4L500,240Z" transform="translate(-150.24 -98.53)"/><path class="cls-14" d="M445.23,232a19,19,0,0,1,4.61-1.83c.81-.22,1.63-.34,2.45-.52s1.67-.19,2.51-.25a23.91,23.91,0,0,1,10,1.52,15.21,15.21,0,0,1,2.34,1,16.27,16.27,0,0,1,2.23,1.25c.7.49,1.4,1,2.09,1.46s1.26,1.14,1.87,1.71a25.59,25.59,0,0,1,3.24,3.82,7.16,7.16,0,0,1,.67,1.05c.2.36.41.72.6,1.09.39.73.77,1.46,1.12,2.2-1.26-1.1-2.31-2.32-3.5-3.38l-1.8-1.55c-.31-.25-.57-.54-.89-.77l-1-.68a31.77,31.77,0,0,0-8.05-4.43,32.45,32.45,0,0,0-9-2A45.88,45.88,0,0,0,445.23,232Z" transform="translate(-150.24 -98.53)"/><path class="cls-14" d="M571.77,105.87a101.48,101.48,0,0,1,28.48-6.77,105.71,105.71,0,0,1,29.51,1c2.44.41,4.86,1,7.27,1.59s4.78,1.35,7.11,2.22a75.56,75.56,0,0,1,13.49,6.25c2.17,1.19,4.21,2.62,6.26,4l2.93,2.27c.48.38,1,.75,1.45,1.14l1.38,1.23c.91.84,1.83,1.65,2.71,2.5s1.71,1.76,2.54,2.66c.41.45.84.88,1.24,1.35l1.16,1.42c.76,1,1.53,1.9,2.27,2.87-1-.77-1.87-1.56-2.8-2.34l-1.37-1.18c-.47-.38-1-.73-1.44-1.1-1-.72-1.91-1.47-2.85-2.2s-2-1.36-3-2l-1.47-1c-.5-.33-1-.63-1.52-.94l-3-1.86c-2.12-1.09-4.13-2.35-6.31-3.3s-4.32-1.93-6.49-2.85c-1.1-.44-2.22-.8-3.33-1.22-.56-.2-1.1-.42-1.66-.6l-1.69-.52a102.12,102.12,0,0,0-13.75-3.39A142.33,142.33,0,0,0,600.48,103,189.14,189.14,0,0,0,571.77,105.87Z" transform="translate(-150.24 -98.53)"/><path class="cls-14" d="M538.07,493.58a77.6,77.6,0,0,1-12.54-6.79,115.41,115.41,0,0,1-11.43-8.63,124.31,124.31,0,0,1-19.52-21c-1.44-1.92-2.77-3.91-4.12-5.9s-2.59-4-3.75-6.13a120.61,120.61,0,0,1-6.44-12.83,114.65,114.65,0,0,1-8-27.35,263.12,263.12,0,0,0,11.56,25.66,190.36,190.36,0,0,0,14.8,23.58,186.91,186.91,0,0,0,18.14,21.12A173.75,173.75,0,0,0,538.07,493.58Z" transform="translate(-150.24 -98.53)"/><path class="cls-18" d="M635.81,393.71s-41.08-2.34-93.55-21.81c0,0-5.5,15.51.88,22.14s54.05,32.25,80.77,23.39C623.91,417.43,632.36,410.82,635.81,393.71Z" transform="translate(-150.24 -98.53)"/><path class="cls-18" d="M625.57,418.1s-37.9,8.39-83-26.82c0,0-6.16-4.8-.25,13s32.81,40.44,74.59,33.42C616.87,437.72,625.55,432.94,625.57,418.1Z" transform="translate(-150.24 -98.53)"/><path class="cls-7" d="M960.8,537.84c-.46,1-1,2.15-1.7,3.34,0,0-27.54,7.18-41,1.06C928.14,543.2,946.26,543.78,960.8,537.84Z" transform="translate(-150.24 -98.53)"/><path class="cls-3" d="M962.08,540.15s10.6.73,1.39,17.77c0,0-28.24,8-41.56,1.75s3.6-12.56,3.6-12.56Z" transform="translate(-150.24 -98.53)"/><path class="cls-7" d="M964.55,555.33c-.46,1-1,2.15-1.7,3.34,0,0-27.54,7.18-41,1.06C931.89,560.69,950,561.27,964.55,555.33Z" transform="translate(-150.24 -98.53)"/><path class="cls-3" d="M964.52,570.66c-.34.77-.72,1.6-1.17,2.47,0,0-22.39,7.15-34.3,3.15a12.55,12.55,0,0,1-1.26-.47c-11.52-5,2.86-10.86,2.86-10.86l31.2-7S969.9,558.24,964.52,570.66Z" transform="translate(-150.24 -98.53)"/><path class="cls-7" d="M964.52,570.66c-.34.77-.72,1.6-1.17,2.47,0,0-22.39,7.15-34.3,3.15C938.72,576.27,952.5,575.29,964.52,570.66Z" transform="translate(-150.24 -98.53)"/></g></svg>